<svg height="933.333" viewBox="0 0 700 700" width="933.333" xmlns="http://www.w3.org/2000/svg"><path d="m358.5 59.6c-18.7 3.9-41.6 16.1-60.6 32.4-13.4 11.5-33.6 33.7-40.5 44.6-1 1.6-2.1 3.1-2.4 3.4-1 .9-12.7 19.4-16.1 25.5-9.8 17.6-20.3 41.7-26.3 60.3-3.5 11-10 34.7-11.1 40.7-3.9 22.2-6.3 39.2-7.3 52.9-1.4 19.8-.6 72.4 1.3 82.6.1.8.6 4.6.9 8.5.4 3.8.9 7.7 1.1 8.5s.6 3.7 1 6.5c.8 6.7 1.3 9.6 3 18.5.8 4.1 1.6 8.6 1.9 10 .5 2.8 1.5 7.5 2.3 10.4.5 1.7 0 1.8-6.1 1.2-13-1.4-30.2-7.2-44.6-15.2-38.4-21.2-69.1-62.6-85.9-115.9-1.3-3.9-2.5-7.6-2.7-8.4-.5-1.6-6 2.3-11.6 8.4-4 4.2-10 14.9-11.3 20-.5 1.6-1 3.6-1.2 4.2-.4 1.6-1.1 4.7-1.2 5.3-.1.2-1.8-2.8-3.8-6.7-7.8-14.8-18.1-22.3-33-24l-4.3-.4 1.4 3.8c.8 2.1 2.5 6.7 3.9 10.3 18 47.9 23.4 65.1 27.3 88 2.6 14.8 2.5 49.3-.1 59-.2.8-.7 2.9-.9 4.6-.3 1.7-1.7 7.3-3.1 12.5s-3.4 12.8-4.5 16.9c-6.8 25.3 7.6 52.7 38.6 73.2 17.6 11.7 41.9 20.3 63.9 22.5 8.4.8 26 .8 41 0 38.8-2.2 52.6-9.5 54.8-28.7.8-7.6-2-12.4-15.9-27-15.3-16-19.8-23.5-19.8-32.6 0-6.9 1.4-9.5 14.1-26.5 8.2-11 13.1-15.5 18.7-17 3.5-1 4.1-.8 6.8 1.8 2.9 2.7 12.5 21.3 24.3 47.3 23.9 52.6 47.2 83.3 72 94.6 10.2 4.7 14.7 5.4 31.5 5 8.5-.3 17.1-.7 19-1.1 26.4-4.8 37.7-15.7 38.5-37 .4-10.2-1.2-16.4-6.6-26.2-5.6-10.2-10.7-17.2-29.4-39.8-29.8-36.1-40.8-54.4-44.6-74.6-1.8-9.7-1.2-29.2 1-35.2.5-1.2.9-2.5 1-3 1.2-9.4 10-22 18.3-26.3 4.6-2.4 10.5-4.3 15.2-4.9 14.9-2.1 18.7-1.1 23.9 6.1 3.2 4.4 8.9 18.9 10.1 25.9.3 1.6.8 4.1 1.1 5.5.5 2.3.7 4 2 11.5.8 4.8 3.3 22.5 4 28 .3 2.7.8 6.3 1 8 .3 1.6.9 6.8 1.5 11.5 1.7 13.2 2 16.1 3 22.5.5 3.3 1.2 8 1.5 10.5 1.3 8.9 5.5 28.4 8 36.8 3.2 10.6 13.5 31.2 22.2 44.7 14.4 22.1 29.7 32.5 52.8 36.2 6.2.9 32.6 1 38 .1 6.6-1.1 13.7-3.8 19-7.1 6.3-4 8-5.9 11.2-12.7 3.3-6.7 3.6-16.3.8-23.7-1.8-4.8-8.7-16.1-12.2-19.8-10.7-11.7-23.4-28.8-27.5-37-5.7-11.5-7.3-18.8-7.2-34.5 0-13.8.6-19.6 3.4-37.5 3.1-19.7 3.9-26.5 4.1-35 .2-8.4.5-8-5.8-8.1-14.3-.1-28.5-2.7-43.9-7.9-46.6-15.6-80.4-55.4-99-116.9-2.1-7-3.3-11.8-6.4-25.1-1.3-5.4-3-14.4-3.4-18-.6-4.4-1.8-12.7-2.2-15-.2-1.1-.7-5.6-1-10s-.7-8.6-1-9.3c-2.2-7-2.2-81.6 0-103.2.2-1.9.7-7.6 1-12.5.4-5 .9-10.1 1.1-11.5s.7-5.5 1-9.1c.3-3.7 1.1-11.1 1.9-16.5.8-5.5 1.2-10.1 1-10.3-.8-.9-6.4-.7-11.9.5z"/><path d="m463.1 92.6c-7.9 1.6-13.3 4.1-22.4 10.3-24.3 16.4-37.3 32.1-37.1 45.1 0 6.9 2.4 12.1 8.4 18.1 7.3 7.3 12.6 9.4 24.5 9.4 25.6 0 50.1-16 62.8-41 3.7-7.5 4-15.2.8-23.7-5.5-14.4-20.1-21.6-37-18.2zm188.1 8.5c-9.2 2.3-18.5 7.2-22.2 11.8l-2.9 3.5 4.9 2.5c12.3 6.5 20.4 18.4 25.5 37.3 1.4 5.1 2.5 9.4 2.5 9.5v9.3l3.8-1.5c6.9-2.9 17.7-10.3 23.5-16.2 11.7-11.7 16.4-27.4 11.8-39.3-2.4-6.2-4.1-8.4-9.1-12.2-8.2-6.1-24.4-8.1-37.8-4.7zm-104.2 162.1c-15.9 2-31.5 12.1-40.8 26.3-10.3 15.7-8.2 36 4.7 44.9 3.8 2.6 11.1 4.5 15.5 4.1 17.3-1.9 42.9-19.3 50.9-34.6 4.2-7.8 4.8-18.4 1.7-25.7-4.8-11.1-17.2-17-32-15zm2.8 31.4c5.5 6.2-.8 15.5-8.7 12.8-6.5-2.3-7-12.2-.7-15 3.8-1.6 6.4-1 9.4 2.2zm69.2-29.1c-10.9 3.5-17.3 13.3-17.3 26.5.1 15.6 6.9 30.4 17.7 38.1 5.2 3.8 8.1 3.6 15.2-1 16.3-10.6 23.9-28.8 19.3-45.8-2.3-8.6-5.8-13.6-11.5-16.3-5.9-2.9-16.9-3.6-23.4-1.5zm14.2 29.9c2.9 5.4-1.3 12.6-7.4 12.6-3.6 0-7.8-4.3-7.8-7.9 0-3.5 3.3-7.8 6.3-8.3 3.3-.6 7.6 1.1 8.9 3.6zm-51.7 46.7c-13.7 1.9-17.5 7.5-11.9 17.7 4.1 7.6 10 13 15.3 14.1 6.8 1.4 17.7.5 21.4-1.8 5.8-3.6 11.8-12.1 13.2-18.8.6-2.8.2-3.8-2.3-6.2-1.6-1.6-4.9-3.5-7.3-4.1-5.1-1.4-21.1-1.9-28.4-.9zm-78.2 29c.7 6.5 1.3 8.3 4.7 14.7 3.7 6.9 5.9 9.5 13.2 15.4 9.6 7.9 22.8 12.9 38.4 14.6 9.3 1 12.8.1 14.7-4 2.1-4.6 3-11.8 1.4-11.9-28.3-2-45.5-9.1-66.1-27.2l-6.8-6.1z"/></svg>